<svg width="97" height="95" viewBox="0 0 97 95" fill="none" xmlns="http://www.w3.org/2000/svg">
<g filter="url(#filter0_d_32_64)">
<path d="M18.6318 0L92.1907 14.6318L80.6803 72.4981C79.5877 77.991 79.0414 80.7375 77.5551 82.6228C76.2477 84.2813 74.4489 85.4832 72.4164 86.0565C70.1057 86.7081 67.3592 86.1618 61.8663 85.0692L4 73.5589L18.6318 0Z" fill="#F56E0F"/>
<path d="M47.2841 34.0192C48.1161 35.7152 48.5321 37.6032 48.5321 39.6832C48.5321 41.7632 48.1161 43.6512 47.2841 45.3472C46.4521 47.0112 45.3801 48.3392 44.0681 49.3312C41.4121 51.3792 38.6601 52.4032 35.8121 52.4032H29.8121V57.8272C29.8121 58.5632 29.7801 59.1232 29.7161 59.5072C29.6841 59.8592 29.5401 60.2752 29.2841 60.7552C28.8361 61.6192 27.5881 62.0512 25.5401 62.0512C23.3001 62.0512 21.9881 61.4592 21.6041 60.2752C21.4121 59.7312 21.3161 58.8992 21.3161 57.7792V31.1392C21.3161 30.4032 21.3321 29.8592 21.3641 29.5072C21.4281 29.1232 21.5881 28.6912 21.8441 28.2112C22.2921 27.3472 23.5401 26.9152 25.5881 26.9152H35.8601C38.6761 26.9152 41.4121 27.9392 44.0681 29.9872C45.3801 30.9792 46.4521 32.3232 47.2841 34.0192ZM35.8601 43.9072C36.8201 43.9072 37.7641 43.5552 38.6921 42.8512C39.6201 42.1472 40.0841 41.0912 40.0841 39.6832C40.0841 38.2752 39.6201 37.2192 38.6921 36.5152C37.7641 35.7792 36.8041 35.4112 35.8121 35.4112H29.8121V43.9072H35.8601Z" fill="#FBFBFB"/>
<path d="M67.6762 58.9312C66.4602 60.5312 64.5242 61.3312 61.8682 61.3312C59.2122 61.3312 56.7162 60.1152 54.3802 57.6832C52.0762 55.2192 50.9242 52.3552 50.9242 49.0912C50.9242 45.8272 52.0922 42.9632 54.4282 40.4992C56.7642 38.0352 59.3242 36.8032 62.1082 36.8032C63.1962 36.8032 64.1882 37.0112 65.0842 37.4272C65.9802 37.8112 66.5882 38.1792 66.9082 38.5312C67.2602 38.8512 67.5322 39.1552 67.7242 39.4432C67.8202 38.5472 68.1402 37.8752 68.6842 37.4272C69.2602 36.9472 70.1722 36.7072 71.4202 36.7072C72.6682 36.7072 73.5802 36.8032 74.1562 36.9952C74.7322 37.1872 75.1322 37.5232 75.3562 38.0032C75.6122 38.4512 75.7562 38.8512 75.7882 39.2032C75.8522 39.5552 75.8842 40.0992 75.8842 40.8352V60.7072C75.8842 64.3872 74.6042 67.3472 72.0442 69.5872C69.4842 71.8592 66.6042 72.9952 63.4042 72.9952C60.9722 72.9952 58.6522 72.4032 56.4442 71.2192C54.2362 70.0352 53.1322 68.9632 53.1322 68.0032C53.1322 66.7552 53.6122 65.6512 54.5722 64.6912C55.1802 64.0192 55.6442 63.5552 55.9642 63.2992C56.3162 63.0432 56.7162 62.9152 57.1642 62.9152C57.6122 62.9152 58.0762 63.1072 58.5562 63.4912C60.0922 64.6752 61.7562 65.2672 63.5482 65.2672C64.7642 65.2672 65.7562 64.7872 66.5242 63.8272C67.2922 62.8672 67.6762 61.7152 67.6762 60.3712V58.9312ZM59.1322 49.1392C59.1322 50.1632 59.5322 51.0912 60.3322 51.9232C61.1642 52.7552 62.1562 53.1712 63.3082 53.1712C64.4922 53.1712 65.4682 52.7552 66.2362 51.9232C67.0042 51.0592 67.3882 50.1312 67.3882 49.1392C67.3882 48.1152 67.0202 47.1712 66.2842 46.3072C65.5482 45.4112 64.5562 44.9632 63.3082 44.9632C62.0602 44.9632 61.0522 45.3952 60.2842 46.2592C59.5162 47.1232 59.1322 48.0832 59.1322 49.1392Z" fill="#FBFBFB"/>
</g>
<defs>
<filter id="filter0_d_32_64" x="0" y="0" width="96.1907" height="94.3372" filterUnits="userSpaceOnUse" color-interpolation-filters="sRGB">
<feFlood flood-opacity="0" result="BackgroundImageFix"/>
<feColorMatrix in="SourceAlpha" type="matrix" values="0 0 0 0 0 0 0 0 0 0 0 0 0 0 0 0 0 0 127 0" result="hardAlpha"/>
<feOffset dy="4"/>
<feGaussianBlur stdDeviation="2"/>
<feComposite in2="hardAlpha" operator="out"/>
<feColorMatrix type="matrix" values="0 0 0 0 0 0 0 0 0 0 0 0 0 0 0 0 0 0 0.25 0"/>
<feBlend mode="normal" in2="BackgroundImageFix" result="effect1_dropShadow_32_64"/>
<feBlend mode="normal" in="SourceGraphic" in2="effect1_dropShadow_32_64" result="shape"/>
</filter>
</defs>
</svg>
